<svg width="362" height="80" viewBox="0 0 362 80" fill="none" xmlns="http://www.w3.org/2000/svg">
<path d="M15.7955 65.4432L15.8239 50.9261H17.5852L31.5625 34.3636H45.4545L26.6761 56.2955H23.8068L15.7955 65.4432ZM4.82955 78V19.8182H16.9318V78H4.82955ZM32.1023 78L19.2614 58.9943L27.3295 50.4432L46.2784 78H32.1023Z" fill="#2672FF"/>
<path d="M69.4815 78.8523C64.9929 78.8523 61.1293 77.9432 57.8906 76.125C54.6709 74.2879 52.1899 71.6932 50.4474 68.3409C48.705 64.9697 47.8338 60.983 47.8338 56.3807C47.8338 51.892 48.705 47.9527 50.4474 44.5625C52.1899 41.1723 54.6425 38.5303 57.8054 36.6364C60.9872 34.7424 64.7183 33.7955 68.9986 33.7955C71.8774 33.7955 74.5573 34.2595 77.0384 35.1875C79.5384 36.0966 81.7164 37.4697 83.5724 39.3068C85.4474 41.1439 86.9058 43.4545 87.9474 46.2386C88.9891 49.0038 89.5099 52.2424 89.5099 55.9545V59.2784H52.6634V51.7784H78.1179C78.1179 50.036 77.7391 48.4924 76.9815 47.1477C76.224 45.803 75.1728 44.7519 73.8281 43.9943C72.5024 43.2178 70.9588 42.8295 69.1974 42.8295C67.3603 42.8295 65.7315 43.2557 64.3111 44.108C62.9096 44.9413 61.8111 46.0682 61.0156 47.4886C60.2202 48.8902 59.813 50.4527 59.794 52.1761V59.3068C59.794 61.4659 60.1918 63.3314 60.9872 64.9034C61.8016 66.4754 62.9474 67.6875 64.4247 68.5398C65.902 69.392 67.6539 69.8182 69.6804 69.8182C71.0251 69.8182 72.2562 69.6288 73.3736 69.25C74.491 68.8712 75.4474 68.303 76.2429 67.5455C77.0384 66.7879 77.6444 65.8598 78.0611 64.7614L89.2543 65.5C88.6861 68.1894 87.5213 70.5379 85.7599 72.5455C84.0175 74.5341 81.7637 76.0871 78.9986 77.2045C76.2524 78.303 73.08 78.8523 69.4815 78.8523ZM120.618 34.3636V43.4545H94.3395V34.3636H120.618ZM100.305 23.9091H112.408V64.5909C112.408 65.7083 112.578 66.5795 112.919 67.2045C113.26 67.8106 113.733 68.2367 114.339 68.483C114.964 68.7292 115.684 68.8523 116.499 68.8523C117.067 68.8523 117.635 68.8049 118.203 68.7102C118.771 68.5966 119.207 68.5114 119.51 68.4545L121.413 77.4602C120.807 77.6496 119.955 77.8674 118.857 78.1136C117.758 78.3788 116.423 78.5398 114.851 78.5966C111.934 78.7102 109.377 78.322 107.18 77.4318C105.002 76.5417 103.307 75.1591 102.095 73.2841C100.883 71.4091 100.286 69.0417 100.305 66.1818V23.9091ZM140.945 78.8239C138.161 78.8239 135.679 78.3409 133.501 77.375C131.323 76.3902 129.6 74.9413 128.331 73.0284C127.081 71.0966 126.456 68.6913 126.456 65.8125C126.456 63.3883 126.901 61.3523 127.791 59.7045C128.681 58.0568 129.893 56.7311 131.428 55.7273C132.962 54.7235 134.704 53.9659 136.655 53.4545C138.625 52.9432 140.689 52.5833 142.848 52.375C145.386 52.1098 147.431 51.8636 148.984 51.6364C150.537 51.3902 151.664 51.0303 152.365 50.5568C153.066 50.0833 153.416 49.3826 153.416 48.4545V48.2841C153.416 46.4848 152.848 45.0928 151.712 44.108C150.594 43.1231 149.003 42.6307 146.939 42.6307C144.761 42.6307 143.028 43.1136 141.74 44.0795C140.452 45.0265 139.6 46.2197 139.183 47.6591L127.99 46.75C128.558 44.0985 129.676 41.8068 131.342 39.875C133.009 37.9242 135.159 36.428 137.791 35.3864C140.443 34.3258 143.511 33.7955 146.996 33.7955C149.42 33.7955 151.74 34.0795 153.956 34.6477C156.191 35.2159 158.17 36.0966 159.893 37.2898C161.636 38.483 163.009 40.017 164.013 41.892C165.017 43.7481 165.518 45.9735 165.518 48.5682V78H154.041V71.9489H153.7C153 73.3125 152.062 74.5152 150.888 75.5568C149.714 76.5795 148.303 77.3845 146.655 77.9716C145.007 78.5398 143.104 78.8239 140.945 78.8239ZM144.411 70.4716C146.191 70.4716 147.763 70.1212 149.126 69.4205C150.49 68.7008 151.56 67.7348 152.337 66.5227C153.113 65.3106 153.501 63.9375 153.501 62.4034V57.7727C153.123 58.0189 152.602 58.2462 151.939 58.4545C151.295 58.6439 150.566 58.8239 149.751 58.9943C148.937 59.1458 148.123 59.2879 147.308 59.4205C146.494 59.5341 145.755 59.6383 145.092 59.733C143.672 59.9413 142.431 60.2727 141.371 60.7273C140.31 61.1818 139.486 61.7973 138.899 62.5739C138.312 63.3314 138.018 64.2784 138.018 65.4148C138.018 67.0625 138.615 68.322 139.808 69.1932C141.02 70.0455 142.554 70.4716 144.411 70.4716ZM211.214 46.8068L200.135 47.4886C199.946 46.5417 199.538 45.6894 198.913 44.9318C198.288 44.1553 197.464 43.5398 196.442 43.0852C195.438 42.6117 194.235 42.375 192.834 42.375C190.959 42.375 189.377 42.7727 188.089 43.5682C186.802 44.3447 186.158 45.3864 186.158 46.6932C186.158 47.7348 186.574 48.6155 187.408 49.3352C188.241 50.0549 189.671 50.6326 191.697 51.0682L199.595 52.6591C203.838 53.5303 207 54.9318 209.084 56.8636C211.167 58.7955 212.209 61.3333 212.209 64.4773C212.209 67.3371 211.366 69.8466 209.68 72.0057C208.014 74.1648 205.722 75.8504 202.805 77.0625C199.908 78.2557 196.565 78.8523 192.777 78.8523C187 78.8523 182.398 77.6496 178.97 75.2443C175.561 72.8201 173.563 69.5246 172.976 65.358L184.879 64.733C185.239 66.4943 186.11 67.839 187.493 68.767C188.875 69.6761 190.646 70.1307 192.805 70.1307C194.927 70.1307 196.631 69.7235 197.919 68.9091C199.226 68.0758 199.889 67.0057 199.908 65.6989C199.889 64.6004 199.425 63.7008 198.516 63C197.607 62.2803 196.205 61.7311 194.311 61.3523L186.754 59.8466C182.493 58.9943 179.321 57.517 177.237 55.4148C175.173 53.3125 174.141 50.6326 174.141 47.375C174.141 44.572 174.898 42.1572 176.413 40.1307C177.947 38.1042 180.097 36.5417 182.862 35.4432C185.646 34.3447 188.904 33.7955 192.635 33.7955C198.146 33.7955 202.483 34.9602 205.646 37.2898C208.828 39.6193 210.684 42.7917 211.214 46.8068ZM239.545 78.8523C235.133 78.8523 231.316 77.9148 228.097 76.0398C224.896 74.1458 222.424 71.5133 220.682 68.142C218.939 64.7519 218.068 60.822 218.068 56.3523C218.068 51.8447 218.939 47.9053 220.682 44.5341C222.424 41.1439 224.896 38.5114 228.097 36.6364C231.316 34.7424 235.133 33.7955 239.545 33.7955C243.958 33.7955 247.765 34.7424 250.966 36.6364C254.186 38.5114 256.667 41.1439 258.409 44.5341C260.152 47.9053 261.023 51.8447 261.023 56.3523C261.023 60.822 260.152 64.7519 258.409 68.142C256.667 71.5133 254.186 74.1458 250.966 76.0398C247.765 77.9148 243.958 78.8523 239.545 78.8523ZM239.602 69.4773C241.61 69.4773 243.286 68.9091 244.631 67.7727C245.975 66.6174 246.989 65.0455 247.67 63.0568C248.371 61.0682 248.722 58.8049 248.722 56.267C248.722 53.7292 248.371 51.4659 247.67 49.4773C246.989 47.4886 245.975 45.9167 244.631 44.7614C243.286 43.6061 241.61 43.0284 239.602 43.0284C237.576 43.0284 235.871 43.6061 234.489 44.7614C233.125 45.9167 232.093 47.4886 231.392 49.4773C230.71 51.4659 230.369 53.7292 230.369 56.267C230.369 58.8049 230.71 61.0682 231.392 63.0568C232.093 65.0455 233.125 66.6174 234.489 67.7727C235.871 68.9091 237.576 69.4773 239.602 69.4773ZM292.358 34.3636V43.4545H265.426V34.3636H292.358ZM271.591 78V31.2102C271.591 28.0473 272.206 25.4242 273.438 23.3409C274.688 21.2576 276.392 19.6951 278.551 18.6534C280.71 17.6117 283.163 17.0909 285.909 17.0909C287.765 17.0909 289.46 17.233 290.994 17.517C292.547 17.8011 293.703 18.0568 294.46 18.2841L292.301 27.375C291.828 27.2235 291.241 27.0814 290.54 26.9489C289.858 26.8163 289.157 26.75 288.438 26.75C286.657 26.75 285.417 27.1667 284.716 28C284.015 28.8144 283.665 29.9602 283.665 31.4375V78H271.591ZM322.962 34.3636V43.4545H296.683V34.3636H322.962ZM302.649 23.9091H314.751V64.5909C314.751 65.7083 314.922 66.5795 315.263 67.2045C315.604 67.8106 316.077 68.2367 316.683 68.483C317.308 68.7292 318.028 68.8523 318.842 68.8523C319.411 68.8523 319.979 68.8049 320.547 68.7102C321.115 68.5966 321.551 68.5114 321.854 68.4545L323.757 77.4602C323.151 77.6496 322.299 77.8674 321.2 78.1136C320.102 78.3788 318.767 78.5398 317.195 78.5966C314.278 78.7102 311.721 78.322 309.524 77.4318C307.346 76.5417 305.651 75.1591 304.439 73.2841C303.227 71.4091 302.63 69.0417 302.649 66.1818V23.9091Z" fill="#192029"/>
<ellipse cx="9.60502" cy="8.98945" rx="9.60502" ry="8.98945" transform="matrix(0.999902 -0.0139959 0.0202091 0.999796 313.914 3.09424)" fill="#2672FF"/>
<ellipse cx="17.9294" cy="16.7803" rx="17.9294" ry="16.7803" transform="matrix(0.999902 -0.0139959 0.0202091 0.999796 324.522 20.9261)" fill="#2672FF"/>
</svg>
